<?xml version="1.0" encoding="UTF-8"?>
<svg width="11px" height="11px" viewBox="0 0 11 11" version="1.1" xmlns="http://www.w3.org/2000/svg" xmlns:xlink="http://www.w3.org/1999/xlink">
    <title>Group 3</title>
    <defs>
        <polygon id="path-1" points="0 0 11 0 11 11 0 11"></polygon>
    </defs>
    <g id="Page-1" stroke="none" stroke-width="1" fill="none" fill-rule="evenodd">
        <g id="Group-3">
            <mask id="mask-2" fill="white">
                <use xlink:href="#path-1"></use>
            </mask>
            <g id="Clip-2"></g>
            <path d="M2.68253044,2.20159164 C2.88778472,2.20159164 3.09345056,2.19307107 3.29817568,2.20347204 C3.64359787,2.22104204 3.82803862,2.41125638 3.83168393,2.73638951 C3.83544683,3.07503802 3.64524414,3.29075531 3.29259013,3.29616146 C2.55782568,3.30738511 1.82264967,3.30732634 1.08794401,3.29539755 C0.736524705,3.28969758 0.545381293,3.09037505 0.540854057,2.73580188 C0.531446815,2.01120101 0.531799586,1.28630632 0.540383695,0.561705446 C0.544558159,0.206192081 0.753751718,0.00493038354 1.08418112,0.00269740704 C1.4147869,0.000523193074 1.62521516,0.196319975 1.64167784,0.551657051 C1.65602388,0.86145316 1.64467639,1.17254204 1.64467639,1.52923066 C1.88650133,1.34142558 2.08575849,1.17459873 2.29695108,1.02457797 C5.67450397,-1.37616558 10.4019962,0.67264912 10.9516731,4.77398057 C11.3459542,7.71598587 9.28312226,10.502388 6.38998357,10.9357029 C3.36896518,11.3882333 0.581128815,9.40611403 0.0739608447,6.43690167 C0.0215154668,6.12980864 0.0055819495,5.81419504 0.000113989698,5.50198967 C-0.00564794644,5.16886483 0.207543691,4.96219698 0.522980296,4.95532176 C0.841591847,4.94844655 1.06313241,5.13725059 1.07330399,5.47278469 C1.10881633,6.64480354 1.49210268,7.67220778 2.30147832,8.53190373 C3.58168646,9.89155137 5.56385128,10.2876109 7.293902,9.52798754 C8.97997387,8.78757954 10.0515176,7.01677041 9.89165327,5.17803179 C9.74360679,3.47591607 8.87837565,2.22286368 7.33876279,1.50901635 C5.80973309,0.800105068 4.31168849,0.962524728 2.91506572,1.92499636 C2.82258077,1.98869496 2.74097294,2.06814191 2.65430871,2.14024354 C2.66371596,2.16075167 2.6731232,2.18114227 2.68253044,2.20159164" id="Fill-1" fill="#6E0FFF" mask="url(#mask-2)"></path>
        </g>
    </g>
</svg>