<?xml version="1.0" encoding="UTF-8"?>
<svg width="158px" height="28px" viewBox="0 0 158 28" version="1.1" xmlns="http://www.w3.org/2000/svg" xmlns:xlink="http://www.w3.org/1999/xlink">
    <title>Group 28</title>
    <g id="Page-1" stroke="none" stroke-width="1" fill="none" fill-rule="evenodd">
        <g id="Group" fill="#DEDEDE">
            <polygon id="Fill-1" points="14.8706332 0 10.2752949 9.21714042 0 10.6950858 7.43531659 17.8695086 5.68013645 28 14.8706332 23.2171404 24.0611299 28 22.3058599 17.8695086 29.7411765 10.6951747 19.4658815 9.21714042"></polygon>
            <polygon id="Fill-1-Copy" points="46.4706332 0 41.8752949 9.21714042 31.6 10.6950858 39.0353166 17.8695086 37.2801364 28 46.4706332 23.2171404 55.6611299 28 53.9058599 17.8695086 61.3411765 10.6951747 51.0658815 9.21714042"></polygon>
            <polygon id="Fill-1-Copy-3" points="111.529457 0 106.934118 9.21714042 96.6588235 10.6950858 104.09414 17.8695086 102.33896 28 111.529457 23.2171404 120.719953 28 118.964683 17.8695086 126.4 10.6951747 116.124705 9.21714042"></polygon>
            <polygon id="Fill-1-Copy-2" points="78.0706332 0 73.4752949 9.21714042 63.2 10.6950858 70.6353166 17.8695086 68.8801364 28 78.0706332 23.2171404 87.2611299 28 85.5058599 17.8695086 92.9411765 10.6951747 82.6658815 9.21714042"></polygon>
            <polygon id="Fill-1-Copy-4" points="143.129457 0 138.534118 9.21714042 128.258824 10.6950858 135.69414 17.8695086 133.93896 28 143.129457 23.2171404 152.319953 28 150.564683 17.8695086 158 10.6951747 147.724705 9.21714042"></polygon>
        </g>
    </g>
</svg>