<?xml version="1.0" encoding="UTF-8"?>
<svg width="26px" height="26px" viewBox="0 0 26 26" version="1.1" xmlns="http://www.w3.org/2000/svg" xmlns:xlink="http://www.w3.org/1999/xlink">
    <title>Group 5 Copy 3</title>
    <g id="Page-1" stroke="none" stroke-width="1" fill="none" fill-rule="evenodd">
        <g id="Group-5-Copy-3" fill="#C8C8C8">
            <path d="M20.9354839,13.9354839 C20.347871,13.9354839 19.8709677,14.4123871 19.8709677,15 L19.8709677,23.8709677 L2.12903226,23.8709677 L2.12903226,6.12903226 L11,6.12903226 C11.5876129,6.12903226 12.0645161,5.65212903 12.0645161,5.06451613 C12.0645161,4.47690323 11.5876129,4 11,4 L1.67483871,4 C0.751548387,4 0,4.75154839 0,5.67483871 L0,24.3251613 C0,25.2484516 0.751548387,26 1.67483871,26 L20.3251613,26 C21.2484516,26 22,25.2484516 22,24.3251613 L22,15 C22,14.4123871 21.5230968,13.9354839 20.9354839,13.9354839" id="Fill-1"></path>
            <path d="M17.654918,0 C17.0791073,0 16.6117827,0.468460294 16.6117827,1.0456703 C16.6117827,1.6228803 17.0791073,2.0913406 17.654918,2.0913406 L22.2551444,2.0913406 L8.19159491,16.0796207 C7.93776533,16.3326729 7.93567906,16.7432728 8.18811779,16.9970221 L8.99133194,17.8084623 C9.24237982,18.0622116 9.65198427,18.064303 9.90511842,17.8119479 L23.9137295,3.87873969 L23.9137295,8.36536239 C23.9137295,8.94257239 24.3810541,9.41103269 24.9568647,9.41103269 C25.5326754,9.41103269 26,8.94257239 26,8.36536239 L26,0 L17.654918,0 Z" id="Fill-3"></path>
        </g>
    </g>
</svg>