<?xml version="1.0" encoding="UTF-8"?>
<svg width="20px" height="20px" viewBox="0 0 20 20" version="1.1" xmlns="http://www.w3.org/2000/svg" xmlns:xlink="http://www.w3.org/1999/xlink">
    <title>Group 5 Copy 3</title>
    <g id="Page-1" stroke="none" stroke-width="1" fill="none" fill-rule="evenodd">
        <g id="Group-5-Copy-3" fill="#FFFFFF">
            <path d="M16.1774194,10.6774194 C15.7233548,10.6774194 15.3548387,11.0459355 15.3548387,11.5 L15.3548387,18.3548387 L1.64516129,18.3548387 L1.64516129,4.64516129 L8.5,4.64516129 C8.95406452,4.64516129 9.32258065,4.27664516 9.32258065,3.82258065 C9.32258065,3.36851613 8.95406452,3 8.5,3 L1.29419355,3 C0.580741935,3 0,3.58074194 0,4.29419355 L0,18.7058065 C0,19.4192581 0.580741935,20 1.29419355,20 L15.7058065,20 C16.4192581,20 17,19.4192581 17,18.7058065 L17,11.5 C17,11.0459355 16.6314839,10.6774194 16.1774194,10.6774194" id="Fill-1"></path>
            <path d="M13.5093806,0 C13.0615279,0 12.6980532,0.364358006 12.6980532,0.813299121 C12.6980532,1.26224024 13.0615279,1.62659824 13.5093806,1.62659824 L17.0873346,1.62659824 L6.14901826,12.5063717 C5.95159525,12.7031901 5.9499726,13.0225455 6.14631384,13.2199061 L6.77103595,13.8510262 C6.96629542,14.0483868 7.28487665,14.0500134 7.48175877,13.8537372 L18.3773452,3.01679754 L18.3773452,6.50639297 C18.3773452,6.95533408 18.7408198,7.31969209 19.1886726,7.31969209 C19.6365253,7.31969209 20,6.95533408 20,6.50639297 L20,0 L13.5093806,0 Z" id="Fill-3"></path>
        </g>
    </g>
</svg>