<?xml version="1.0" encoding="UTF-8"?>
<svg width="47px" height="16px" viewBox="0 0 47 16" version="1.1" xmlns="http://www.w3.org/2000/svg" xmlns:xlink="http://www.w3.org/1999/xlink">
    <title>Group 16</title>
    <defs>
        <polygon id="path-1" points="0.0385440421 0.0386878613 15.9917053 0.0386878613 15.9917053 14.9864969 0.0385440421 14.9864969"></polygon>
        <polygon id="path-3" points="0 0 12 0 12 16 0 16"></polygon>
    </defs>
    <g id="Page-1" stroke="none" stroke-width="1" fill="none" fill-rule="evenodd">
        <g id="Group-16" transform="translate(3.000000, 0.000000)">
            <g id="Group-6" opacity="0.504251" transform="translate(34.000000, 7.500000) scale(1, -1) translate(-34.000000, -7.500000) translate(24.000000, 0.000000)">
                <g id="Group-3" transform="translate(3.500000, 0.000000)">
                    <mask id="mask-2" fill="white">
                        <use xlink:href="#path-1"></use>
                    </mask>
                    <g id="Clip-2"></g>
                    <path d="M7.39001263,0.0386878613 C7.83742316,0.149887283 8.14752842,0.402676301 8.20887579,0.899453757 C8.25018105,1.23417919 8.11098105,1.49810983 7.88643368,1.7284422 C7.02887579,2.60793642 6.17363368,3.48981503 5.31754947,4.37082659 C4.67426526,5.03286416 4.03085474,5.69481503 3.38778105,6.35711272 C3.33898105,6.40735838 3.29237053,6.45994509 3.23439158,6.52263295 C3.32736,6.58696821 3.41940211,6.56052312 3.50411789,6.56052312 C7.96912842,6.56195376 10.4080337,6.56169364 14.8730442,6.5619104 C15.50816,6.56195376 15.7883284,6.76948266 15.9917389,7.38738728 L15.9917389,7.6467659 C15.7882863,8.26484393 15.5082442,8.47219942 14.8728337,8.47219942 C10.4140126,8.47245954 7.98129684,8.47219942 3.52247579,8.47345665 C3.43422316,8.4735 3.34247579,8.45212717 3.25300211,8.49608671 C3.26386526,8.5876474 3.33931789,8.62540751 3.39051789,8.67816763 C4.88403368,10.2176185 6.37822316,11.7563757 7.87451789,13.2929653 C8.10399158,13.5286301 8.24921263,13.793948 8.20933895,14.1386445 C8.16550737,14.5174595 7.96234947,14.7794827 7.62487579,14.9175173 C7.29093895,15.054078 6.97864421,14.9826329 6.70230737,14.7495694 C6.63754947,14.6949884 6.57965474,14.6315636 6.52028632,14.5704798 C4.49573895,12.487474 2.47131789,10.4043815 0.447107368,8.3210289 C-0.0956715789,7.76243064 -0.0976084211,7.27415029 0.441128421,6.71967052 C2.46525474,4.63623121 4.49098105,2.55448266 6.51194947,0.46783526 C6.71578105,0.257358382 6.93658105,0.0965202312 7.22201263,0.0386878613 L7.39001263,0.0386878613 Z" id="Fill-1" fill="#FFFFFF" mask="url(#mask-2)"></path>
                </g>
                <path d="M1.5,15 L1.5,15 C0.947706867,15 0.5,14.5188337 0.5,13.9252649 L0.5,1.07473508 C0.5,0.481166274 0.947706867,0 1.5,0 L1.5,0 C2.05229313,0 2.5,0.481166274 2.5,1.07473508 L2.5,13.9252649 C2.5,14.5188337 2.05229313,15 1.5,15" id="Fill-4" fill="#FFFFFF"></path>
            </g>
            <g id="Group-3" opacity="0.5" transform="translate(6.000000, 8.000000) scale(-1, 1) translate(-6.000000, -8.000000) ">
                <mask id="mask-4" fill="white">
                    <use xlink:href="#path-3"></use>
                </mask>
                <g id="Clip-2"></g>
                <path d="M8.78066377,1.2040921 L3.21576083,1.2040921 C3.43298852,1.52690408 3.63477506,1.79303417 3.79488708,2.07588472 C3.91326925,2.28505347 4.05052395,2.51527416 4.05378928,2.73743736 C4.07631454,4.26319089 4.05843823,5.78931702 4.07161025,7.31521027 C4.07443283,7.64389071 3.9117196,7.84025131 3.61042342,8.03721739 C3.14408953,8.34200481 2.68572527,8.67231538 2.30689125,9.0505983 C1.84293719,9.51402049 1.59161721,10.0805134 1.48812274,10.7077402 L10.5226361,10.7077402 C10.4737115,10.5359246 10.4390657,10.3802241 10.3848833,10.2294605 C10.0507678,9.29977506 9.40472986,8.56528581 8.42568329,8.04639268 C8.12604744,7.88757161 7.92442694,7.70588216 7.92741555,7.37487297 C7.94125171,5.82890585 7.92514642,4.28270586 7.94828048,2.73692504 C7.9516565,2.51480841 8.08619931,2.28454114 8.20380665,2.07546554 C8.36281179,1.79275472 8.56415556,1.5268575 8.78066377,1.2040921 L8.78066377,1.2040921 Z M6.71132791,11.9101228 L6.71132791,12.4829033 C6.71121722,13.4461694 6.71177067,14.4094821 6.71060843,15.3727482 C6.71027636,15.6307743 6.6196772,15.8801373 6.31622257,15.95843 C6.1023709,16.0136215 5.77655704,16.0247996 5.62635171,15.9235919 C5.44504269,15.8014254 5.31121936,15.5415364 5.30496542,15.3380964 C5.27358501,14.3152607 5.29052047,13.2914004 5.29046512,12.2679127 L5.29046512,11.9101228 L4.83387189,11.9101228 C3.53421386,11.9100762 2.23455582,11.9117995 0.93489778,11.909331 C0.23943711,11.9080269 -0.0351276187,11.6859569 0.00355828043,11.1033024 C0.10710809,9.542245 0.903794096,8.27614762 2.3652245,7.31404589 C2.56269415,7.18400823 2.65318263,7.06440339 2.65096884,6.84796892 C2.63763079,5.57372091 2.6504154,4.29928659 2.63663458,3.02503857 C2.63497424,2.86812708 2.56352432,2.692865 2.46290778,2.5587753 C2.02546379,1.97579484 1.77984431,1.34880092 1.77480794,0.658138837 C1.77170864,0.230858918 2.02507638,0.00417793198 2.53939406,0.00319985499 C4.85257838,-0.00113162882 7.1657627,-0.001224779 9.47889167,0.00389848141 C9.96066671,0.00496970859 10.2284794,0.24175749 10.2254354,0.648358067 C10.2202884,1.33804207 9.97378339,1.96592092 9.53678216,2.54913426 C9.43605493,2.68359655 9.36615465,2.85979014 9.36449431,3.01744683 C9.35087953,4.30170849 9.36122898,5.58615646 9.35198643,6.87051127 C9.35065816,7.0591404 9.4146919,7.17599731 9.59788264,7.2940186 C11.1331981,8.28327361 11.8936334,9.614809 11.9982901,11.2246306 C12.0261838,11.6540995 11.7117156,11.9051393 11.1347478,11.9078872 C9.82319064,11.9140817 8.51157816,11.9099831 7.19996568,11.9101228 L6.71132791,11.9101228 Z" id="Fill-1" fill="#FFFFFF" mask="url(#mask-4)"></path>
            </g>
        </g>
    </g>
</svg>