<?xml version="1.0" encoding="UTF-8"?>
<svg width="28px" height="34px" viewBox="0 0 28 34" version="1.1" xmlns="http://www.w3.org/2000/svg" xmlns:xlink="http://www.w3.org/1999/xlink">
    <title>Group 3</title>
    <defs>
        <polygon id="path-1" points="0 0 28 0 28 34 0 34"></polygon>
    </defs>
    <g id="Page-1" stroke="none" stroke-width="1" fill="none" fill-rule="evenodd">
        <g id="Group-3" transform="translate(14.000000, 17.000000) scale(-1, 1) translate(-14.000000, -17.000000) ">
            <mask id="mask-2" fill="white">
                <use xlink:href="#path-1"></use>
            </mask>
            <g id="Clip-2"></g>
            <path d="M14.0495439,33.8233148 C13.758235,30.8004464 13.4237185,27.7891042 12.6940723,24.8237173 C11.7847246,21.1288841 9.46921638,18.8990808 5.74052445,17.9859632 C3.91923356,17.5400325 2.07656781,17.2075679 0,16.8562421 C1.58815222,16.5541648 2.95278446,16.3062759 4.31207298,16.0321909 C5.30707279,15.8316044 6.27611741,15.541203 7.23554334,15.206044 C10.2495515,14.1532643 11.855109,11.9412742 12.6472003,9.02244135 C13.4478415,6.07352049 13.7240353,3.0485564 14.0492385,0.0295799651 C14.2148937,-0.0630790202 14.2495515,0.0837682569 14.3168823,0.170738968 C14.6497195,3.08942216 14.9559907,6.00810535 15.674186,8.87364808 C16.563533,12.4211849 18.7344555,14.6798786 22.3495553,15.6160487 C23.9473262,16.0297958 25.5609756,16.353728 27.1885186,16.6221247 C27.459216,16.6667328 27.7274705,16.7266093 28,16.887827 C26.6828505,17.1429012 25.3634108,17.3868982 24.0494675,17.6579893 C23.4040994,17.7912147 22.7675865,17.9668027 22.1307683,18.1368522 C18.6680408,19.061496 16.5870453,21.2847129 15.7147983,24.666691 C14.9271346,27.7205456 14.5741441,30.8347257 14.307111,33.9628272 C14.1339746,34.0713535 14.1089355,33.9168719 14.0495439,33.8233148" id="Fill-1" fill="#FBFC31" mask="url(#mask-2)"></path>
        </g>
    </g>
</svg>